<svg width="512" height="512" viewBox="0 0 512 512" fill="none" xmlns="http://www.w3.org/2000/svg">
<rect x="6.5" y="6.5" width="499" height="499" fill="#A39645"/>
<rect x="6.5" y="6.5" width="499" height="499" stroke="black" stroke-width="13"/>
<rect x="199.5" y="44.5" width="275.057" height="416.012" fill="#1E1E1E" stroke="white" stroke-width="11"/>
<path d="M422.337 421.091L198 461.29V43.4123L422.337 65.457V421.091Z" fill="#7F3F98" stroke="white" stroke-width="8"/>
<circle cx="401.492" cy="301.554" r="6.22943" fill="black" stroke="#553131" stroke-width="5"/>
<g clip-path="url(#clip0_17_36)" filter="url(#filter0_d_17_36)">
<path d="M31.1263 204.75C31.0596 204.145 31.5442 203.622 32.1525 203.641L163.16 207.867C163.7 207.885 164.128 208.327 164.128 208.867V462.356C164.128 462.932 163.642 463.389 163.067 463.354L59.7546 457.029C59.2689 456.999 58.8751 456.624 58.8218 456.14L31.1263 204.75Z" fill="#24BAE9"/>
<path d="M81.8397 110.244C82.1884 109.682 82.9768 109.608 83.4249 110.094L156.141 189.043C156.732 189.684 156.277 190.721 155.406 190.721H33.7017C32.9177 190.721 32.4386 189.86 32.8519 189.194L81.8397 110.244Z" fill="#7F3F98"/>
<path d="M313.804 288.059C314.157 287.66 314.761 287.608 315.178 287.941L345.875 312.499C346.301 312.84 346.375 313.459 346.041 313.891L222.798 473.257C222.43 473.733 221.726 473.778 221.3 473.352L184.118 436.17C183.745 435.796 183.726 435.196 184.076 434.801L313.804 288.059Z" fill="#FBE34B"/>
<path d="M332.013 352.449C331.778 352.048 331.852 351.537 332.19 351.217L369.234 316.232C369.736 315.758 370.555 315.923 370.835 316.554L427.891 445.458C428.09 445.909 427.932 446.438 427.517 446.704L399.054 465.002C398.575 465.31 397.937 465.157 397.65 464.666L332.013 352.449Z" fill="#EF402F"/>
<path d="M449.683 217.46C449.698 216.919 450.141 216.488 450.682 216.488H547.397C547.982 216.488 548.441 216.987 548.394 217.569L529.236 451.717C529.192 452.255 528.729 452.661 528.19 452.635L444.245 448.437C443.702 448.41 443.28 447.954 443.295 447.411L449.683 217.46Z" fill="#45B85B"/>
<path d="M451.789 133.766C451.826 133.206 452.317 132.787 452.875 132.836L547.571 141.254C548.087 141.3 548.482 141.732 548.482 142.25V200.414C548.482 200.983 548.008 201.437 547.44 201.413L448.586 197.206C448.025 197.182 447.593 196.701 447.631 196.141L451.789 133.766Z" fill="#24BAE9"/>
</g>
<defs>
<filter id="filter0_d_17_36" x="27" y="109.126" width="447" height="370.874" filterUnits="userSpaceOnUse" color-interpolation-filters="sRGB">
<feFlood flood-opacity="0" result="BackgroundImageFix"/>
<feColorMatrix in="SourceAlpha" type="matrix" values="0 0 0 0 0 0 0 0 0 0 0 0 0 0 0 0 0 0 127 0" result="hardAlpha"/>
<feOffset dy="4"/>
<feGaussianBlur stdDeviation="2"/>
<feComposite in2="hardAlpha" operator="out"/>
<feColorMatrix type="matrix" values="0 0 0 0 0 0 0 0 0 0 0 0 0 0 0 0 0 0 0.25 0"/>
<feBlend mode="normal" in2="BackgroundImageFix" result="effect1_dropShadow_17_36"/>
<feBlend mode="normal" in="SourceGraphic" in2="effect1_dropShadow_17_36" result="shape"/>
</filter>
<clipPath id="clip0_17_36">
<rect width="439" height="362.874" fill="white" transform="translate(31 109.126)"/>
</clipPath>
</defs>
</svg>
