<svg width="133" height="84" viewBox="0 0 133 84" fill="none" xmlns="http://www.w3.org/2000/svg">
<rect x="85.5" y="3.5" width="42" height="57" fill="#D9D9D9" stroke="black"/>
<rect x="86.5" y="4.5" width="41" height="63" fill="#C0BBBB" fill-opacity="0.69" stroke="#7F3F98"/>
<g filter="url(#filter0_d_6_5)">
<path d="M4.12627 27.4873C4.05963 26.8824 4.54424 26.3587 5.1525 26.3784L27.4675 27.0982C28.007 27.1156 28.4353 27.5579 28.4353 28.0977V72.9663C28.4353 73.5426 27.9494 73.9997 27.3742 73.9645L9.96418 72.8985C9.47841 72.8688 9.08459 72.4937 9.0313 72.0099L4.12627 27.4873Z" fill="#24BAE9"/>
<path d="M12.765 10.1181C13.1138 9.55612 13.9022 9.4814 14.3503 9.96788L25.7079 22.299C26.2981 22.9398 25.8436 23.9765 24.9724 23.9765H5.96335C5.17937 23.9765 4.70029 23.1154 5.11364 22.4492L12.765 10.1181Z" fill="#7F3F98"/>
<path d="M55.393 42.425C55.7461 42.0255 56.3506 41.9734 56.7669 42.3065L61.1672 45.8267C61.5934 46.1677 61.6675 46.7875 61.3335 47.2193L39.7714 75.1014C39.4027 75.5781 38.6993 75.6229 38.2732 75.1968L32.6473 69.5708C32.2736 69.1972 32.2552 68.5973 32.6052 68.2014L55.393 42.425Z" fill="#FBE34B"/>
<path d="M59.5778 54.2214C59.3428 53.8197 59.416 53.309 59.7544 52.9895L65.2421 47.8066C65.744 47.3326 66.5638 47.4977 66.8432 48.1289L76.5652 70.0935C76.7647 70.5442 76.6061 71.073 76.1916 71.3395L72.2715 73.8595C71.793 74.1671 71.1547 74.0142 70.8675 73.5232L59.5778 54.2214Z" fill="#EF402F"/>
<path d="M80.8259 29.6781C80.841 29.1369 81.2841 28.7059 81.8255 28.7059H97.8972C98.4816 28.7059 98.9415 29.2049 98.8939 29.7874L95.5143 71.0932C95.4703 71.6314 95.007 72.0374 94.4677 72.0104L80.6474 71.3194C80.1045 71.2923 79.6826 70.8363 79.6977 70.2929L80.8259 29.6781Z" fill="#45B85B"/>
<path d="M81.1791 14.3554C81.2164 13.7957 81.7067 13.3761 82.2654 13.4258L98.0709 14.8307C98.5868 14.8766 98.9824 15.3088 98.9824 15.8268V24.9036C98.9824 25.4726 98.5083 25.9269 97.9398 25.9027L81.4822 25.2024C80.921 25.1785 80.4896 24.6972 80.527 24.1368L81.1791 14.3554Z" fill="#24BAE9"/>
</g>
<g filter="url(#filter1_d_6_5)">
<path d="M128.5 67.7176L90.5 74.4043V0.539127L128.5 3.40489V67.7176Z" fill="#7F3F98" stroke="black"/>
<path d="M94.5 40.5405C94.5 40.8305 94.2698 41.0541 94 41.0541C93.7302 41.0541 93.5 40.8305 93.5 40.5405C93.5 40.2506 93.7302 40.027 94 40.027C94.2698 40.027 94.5 40.2506 94.5 40.5405Z" fill="black" stroke="black"/>
</g>
<path d="M93.58 16.528C93.516 16.528 93.444 16.476 93.364 16.372C93.284 16.268 93.248 16.168 93.256 16.072C93.264 15.944 93.3 15.76 93.364 15.52C93.428 15.28 93.5 15.036 93.58 14.788C93.66 14.54 93.732 14.344 93.796 14.2C93.828 14.072 93.856 13.96 93.88 13.864C93.912 13.76 93.932 13.692 93.94 13.66C93.964 13.628 94 13.544 94.048 13.408C94.104 13.272 94.148 13.14 94.18 13.012C94.196 12.948 94.228 12.828 94.276 12.652C94.332 12.468 94.396 12.256 94.468 12.016C94.548 11.776 94.624 11.54 94.696 11.308C94.776 11.076 94.844 10.872 94.9 10.696C94.956 10.52 94.992 10.404 95.008 10.348C95.072 10.252 95.12 10.16 95.152 10.072C95.184 9.984 95.204 9.924 95.212 9.892C95.26 9.86 95.288 9.82 95.296 9.772C95.304 9.716 95.308 9.672 95.308 9.64C95.308 9.6 95.32 9.568 95.344 9.544C95.376 9.52 95.392 9.492 95.392 9.46C95.424 9.436 95.444 9.4 95.452 9.352C95.46 9.296 95.484 9.248 95.524 9.208L95.584 9.004L96.292 8.992C96.276 9.088 96.252 9.208 96.22 9.352C96.188 9.488 96.112 9.672 95.992 9.904C95.952 10.064 95.904 10.208 95.848 10.336C95.8 10.464 95.78 10.548 95.788 10.588C95.772 10.604 95.736 10.684 95.68 10.828C95.632 10.972 95.572 11.148 95.5 11.356C95.436 11.564 95.368 11.772 95.296 11.98C95.232 12.188 95.172 12.372 95.116 12.532C95.068 12.684 95.036 12.78 95.02 12.82C94.956 12.948 94.884 13.136 94.804 13.384C94.724 13.632 94.604 13.968 94.444 14.392C94.38 14.52 94.3 14.712 94.204 14.968C94.116 15.224 94.044 15.456 93.988 15.664C93.9 15.976 93.836 16.192 93.796 16.312C93.764 16.44 93.736 16.508 93.712 16.516C93.688 16.532 93.644 16.536 93.58 16.528ZM93.676 9.376C93.452 9.384 93.284 9.372 93.172 9.34C93.068 9.308 93.032 9.228 93.064 9.1C93.088 9.004 93.14 8.932 93.22 8.884C93.3 8.836 93.416 8.8 93.568 8.776C93.656 8.76 93.768 8.74 93.904 8.716C94.048 8.692 94.184 8.668 94.312 8.644C94.576 8.612 94.792 8.584 94.96 8.56C95.136 8.536 95.316 8.516 95.5 8.5C95.684 8.484 95.916 8.468 96.196 8.452C96.428 8.436 96.624 8.424 96.784 8.416C96.952 8.4 97.036 8.392 97.036 8.392C97.06 8.392 97.144 8.4 97.288 8.416C97.432 8.432 97.588 8.452 97.756 8.476C97.924 8.5 98.048 8.528 98.128 8.56C98.312 8.6 98.444 8.656 98.524 8.728C98.612 8.8 98.672 8.904 98.704 9.04C98.728 9.136 98.728 9.196 98.704 9.22C98.68 9.236 98.636 9.26 98.572 9.292C98.388 9.348 98.252 9.376 98.164 9.376C98.076 9.376 97.976 9.356 97.864 9.316C97.824 9.276 97.776 9.24 97.72 9.208C97.672 9.176 97.584 9.152 97.456 9.136C97.336 9.112 97.144 9.092 96.88 9.076C96.656 9.1 96.46 9.112 96.292 9.112C96.124 9.112 96.04 9.132 96.04 9.172L95.332 9.208L94.744 9.268C94.664 9.276 94.552 9.288 94.408 9.304C94.264 9.312 94.124 9.324 93.988 9.34C93.852 9.348 93.748 9.36 93.676 9.376ZM101.656 16.672C101.448 16.672 101.28 16.552 101.152 16.312C101.032 16.072 100.972 15.816 100.972 15.544C100.972 15.48 100.98 15.38 100.996 15.244C101.02 15.108 101.04 14.984 101.056 14.872C101.08 14.752 101.092 14.692 101.092 14.692C101.06 14.772 100.988 14.92 100.876 15.136C100.764 15.344 100.644 15.528 100.516 15.688C100.372 15.84 100.22 15.992 100.06 16.144C99.9081 16.296 99.7681 16.416 99.6401 16.504C99.4401 16.616 99.3161 16.676 99.2681 16.684C99.2201 16.692 99.1481 16.656 99.0521 16.576C98.9241 16.536 98.8161 16.476 98.7281 16.396C98.6481 16.316 98.5921 16.212 98.5601 16.084C98.4961 15.924 98.4481 15.7 98.4161 15.412C98.3841 15.116 98.3721 14.804 98.3801 14.476C98.3881 14.14 98.4241 13.828 98.4881 13.54C98.5281 13.42 98.5521 13.288 98.5601 13.144C98.5681 13 98.5881 12.888 98.6201 12.808C98.6121 12.744 98.6361 12.6 98.6921 12.376C98.7561 12.152 98.8441 11.88 98.9561 11.56C99.0681 11.24 99.1921 10.904 99.3281 10.552C99.4641 10.2 99.6001 9.864 99.7361 9.544C99.8801 9.224 100.012 8.948 100.132 8.716C100.26 8.484 100.364 8.336 100.444 8.272C100.492 8.216 100.548 8.188 100.612 8.188C100.676 8.18 100.732 8.192 100.78 8.224C100.828 8.248 100.852 8.288 100.852 8.344C100.884 8.4 100.904 8.448 100.912 8.488C100.92 8.52 100.94 8.56 100.972 8.608C100.996 8.688 100.996 8.756 100.972 8.812C100.948 8.868 100.9 8.96 100.828 9.088C100.756 9.216 100.656 9.424 100.528 9.712C100.304 10.112 100.1 10.568 99.9161 11.08C99.7321 11.584 99.5721 12.108 99.4361 12.652C99.3001 13.188 99.2001 13.7 99.1361 14.188C99.0721 14.676 99.0481 15.1 99.0641 15.46C99.0641 15.564 99.1001 15.64 99.1721 15.688C99.2441 15.728 99.3401 15.724 99.4601 15.676C99.5881 15.62 99.7281 15.504 99.8801 15.328C99.9441 15.248 100.02 15.144 100.108 15.016C100.196 14.88 100.272 14.76 100.336 14.656C100.408 14.544 100.444 14.488 100.444 14.488C100.444 14.488 100.468 14.436 100.516 14.332C100.572 14.228 100.636 14.096 100.708 13.936C100.788 13.816 100.892 13.624 101.02 13.36C101.148 13.096 101.28 12.808 101.416 12.496C101.552 12.184 101.672 11.892 101.776 11.62C101.88 11.34 101.948 11.128 101.98 10.984C102.012 10.872 102.048 10.78 102.088 10.708C102.136 10.628 102.188 10.588 102.244 10.588C102.38 10.516 102.472 10.5 102.52 10.54C102.576 10.572 102.632 10.668 102.688 10.828L102.832 11.152L102.568 11.872C102.176 13 101.92 14.088 101.8 15.136C101.8 15.136 101.792 15.176 101.776 15.256C101.768 15.336 101.776 15.416 101.8 15.496C101.832 15.576 101.908 15.612 102.028 15.604C102.156 15.524 102.284 15.424 102.412 15.304C102.54 15.176 102.684 15.016 102.844 14.824C103.004 14.624 103.196 14.376 103.42 14.08C103.524 13.96 103.616 13.84 103.696 13.72C103.784 13.592 103.828 13.528 103.828 13.528C103.828 13.528 103.848 13.48 103.888 13.384C103.936 13.288 103.976 13.204 104.008 13.132C104.08 12.996 104.14 12.9 104.188 12.844C104.244 12.78 104.272 12.748 104.272 12.748C104.336 12.692 104.416 12.568 104.512 12.376C104.608 12.184 104.712 11.956 104.824 11.692C104.944 11.428 105.056 11.16 105.16 10.888C105.264 10.608 105.352 10.352 105.424 10.12C105.496 9.888 105.536 9.716 105.544 9.604C105.568 9.548 105.584 9.436 105.592 9.268C105.6 9.1 105.616 8.928 105.64 8.752C105.672 8.568 105.72 8.432 105.784 8.344C105.856 8.344 105.924 8.4 105.988 8.512C106.052 8.616 106.1 8.748 106.132 8.908C106.172 9.068 106.192 9.228 106.192 9.388C106.192 9.628 106.164 9.888 106.108 10.168C106.052 10.448 105.992 10.668 105.928 10.828C105.896 10.908 105.86 10.992 105.82 11.08C105.78 11.168 105.74 11.268 105.7 11.38C105.644 11.38 105.592 11.432 105.544 11.536C105.504 11.632 105.468 11.712 105.436 11.776C105.436 11.824 105.408 11.936 105.352 12.112C105.296 12.28 105.236 12.424 105.172 12.544C105.124 12.624 105.048 12.752 104.944 12.928C104.848 13.096 104.74 13.276 104.62 13.468C104.5 13.66 104.392 13.836 104.296 13.996C104.208 14.156 104.144 14.268 104.104 14.332C104.04 14.412 103.976 14.492 103.912 14.572C103.856 14.652 103.812 14.736 103.78 14.824C103.684 14.984 103.564 15.144 103.42 15.304C103.284 15.464 103.136 15.62 102.976 15.772C102.824 15.916 102.676 16.044 102.532 16.156C102.396 16.268 102.28 16.356 102.184 16.42C102.08 16.5 101.972 16.56 101.86 16.6C101.756 16.648 101.688 16.672 101.656 16.672ZM108.16 16.576C107.912 16.648 107.628 16.62 107.308 16.492C106.988 16.372 106.712 16.212 106.48 16.012C106.448 15.956 106.404 15.876 106.348 15.772C106.3 15.66 106.252 15.544 106.204 15.424C106.156 15.296 106.12 15.188 106.096 15.1C106.072 15.004 106.064 14.944 106.072 14.92C106.104 14.88 106.12 14.832 106.12 14.776C106.128 14.72 106.128 14.676 106.12 14.644C106.08 14.524 106.1 14.304 106.18 13.984C106.26 13.664 106.388 13.272 106.564 12.808C106.74 12.344 106.948 11.848 107.188 11.32C107.34 10.992 107.54 10.648 107.788 10.288C108.036 9.92 108.3 9.572 108.58 9.244C108.868 8.908 109.14 8.62 109.396 8.38C109.66 8.14 109.88 7.984 110.056 7.912C110.192 7.856 110.292 7.832 110.356 7.84C110.428 7.84 110.524 7.848 110.644 7.864C110.876 7.896 111.084 7.98 111.268 8.116C111.46 8.244 111.616 8.392 111.736 8.56C111.808 8.704 111.868 8.884 111.916 9.1C111.964 9.308 111.992 9.516 112 9.724C112.008 9.932 111.984 10.108 111.928 10.252C111.872 10.388 111.828 10.48 111.796 10.528C111.772 10.568 111.704 10.596 111.592 10.612C111.56 10.62 111.508 10.616 111.436 10.6C111.372 10.576 111.296 10.536 111.208 10.48C111.176 10.44 111.132 10.404 111.076 10.372C111.028 10.34 111.004 10.324 111.004 10.324C111.004 10.324 111.008 10.28 111.016 10.192C111.032 10.104 111.056 10.012 111.088 9.916C111.2 9.596 111.224 9.3 111.16 9.028C111.104 8.748 110.984 8.58 110.8 8.524C110.624 8.516 110.388 8.616 110.092 8.824C109.796 9.024 109.508 9.3 109.228 9.652C108.868 10.092 108.54 10.544 108.244 11.008C107.948 11.464 107.7 11.94 107.5 12.436C107.316 12.956 107.172 13.432 107.068 13.864C106.964 14.288 106.9 14.608 106.876 14.824C106.892 14.928 106.9 15.016 106.9 15.088C106.908 15.152 106.896 15.184 106.864 15.184C106.88 15.28 106.924 15.4 106.996 15.544C107.076 15.688 107.156 15.8 107.236 15.88C107.268 15.912 107.316 15.936 107.38 15.952C107.444 15.96 107.516 15.96 107.596 15.952C107.692 15.968 107.832 15.96 108.016 15.928C108.2 15.896 108.376 15.856 108.544 15.808C108.72 15.752 108.832 15.704 108.88 15.664C108.88 15.664 108.92 15.652 109 15.628C109.088 15.596 109.168 15.58 109.24 15.58C109.312 15.54 109.412 15.492 109.54 15.436C109.676 15.372 109.796 15.304 109.9 15.232C110.116 15.136 110.32 15.064 110.512 15.016C110.704 14.968 110.828 14.952 110.884 14.968C110.884 14.968 110.872 14.988 110.848 15.028C110.832 15.06 110.808 15.12 110.776 15.208C110.736 15.264 110.66 15.344 110.548 15.448C110.436 15.544 110.328 15.636 110.224 15.724C110.128 15.804 110.068 15.848 110.044 15.856C110.004 15.864 109.936 15.888 109.84 15.928C109.752 15.968 109.656 16.02 109.552 16.084C109.328 16.22 109.092 16.332 108.844 16.42C108.604 16.516 108.376 16.568 108.16 16.576ZM93.052 31.372C92.836 31.236 92.668 31.044 92.548 30.796C92.428 30.54 92.372 30.284 92.38 30.028C92.372 29.532 92.412 29.032 92.5 28.528C92.596 28.016 92.72 27.52 92.872 27.04C92.976 26.752 93.088 26.456 93.208 26.152C93.336 25.84 93.464 25.548 93.592 25.276C93.72 25.004 93.832 24.788 93.928 24.628C94.176 24.22 94.436 23.884 94.708 23.62C94.988 23.348 95.196 23.172 95.332 23.092C95.444 23.028 95.636 22.964 95.908 22.9C96.188 22.836 96.476 22.84 96.772 22.912C96.98 22.968 97.172 23.036 97.348 23.116C97.532 23.196 97.652 23.264 97.708 23.32C97.772 23.416 97.828 23.5 97.876 23.572C97.932 23.636 97.96 23.716 97.96 23.812C97.968 23.876 97.944 23.956 97.888 24.052C97.84 24.14 97.776 24.204 97.696 24.244C97.624 24.284 97.552 24.264 97.48 24.184C97.376 24.024 97.268 23.916 97.156 23.86C97.044 23.796 96.924 23.732 96.796 23.668C96.708 23.612 96.588 23.584 96.436 23.584C96.284 23.576 96.128 23.592 95.968 23.632C95.808 23.672 95.668 23.74 95.548 23.836C95.468 23.908 95.364 24.016 95.236 24.16C95.108 24.296 94.98 24.448 94.852 24.616C94.724 24.784 94.62 24.948 94.54 25.108C94.324 25.484 94.128 25.864 93.952 26.248C93.784 26.624 93.64 27.036 93.52 27.484C93.488 27.596 93.444 27.76 93.388 27.976C93.34 28.192 93.292 28.408 93.244 28.624C93.196 28.84 93.164 29.016 93.148 29.152C93.092 29.544 93.072 29.888 93.088 30.184C93.112 30.48 93.216 30.684 93.4 30.796C93.584 30.908 93.888 30.892 94.312 30.748C94.496 30.724 94.692 30.644 94.9 30.508C95.116 30.372 95.324 30.204 95.524 30.004C95.732 29.796 95.908 29.576 96.052 29.344C96.188 29.088 96.308 28.836 96.412 28.588C96.524 28.34 96.584 28.136 96.592 27.976C96.6 27.816 96.524 27.74 96.364 27.748C96.068 27.716 95.828 27.708 95.644 27.724C95.46 27.732 95.296 27.704 95.152 27.64C95.096 27.552 95.072 27.464 95.08 27.376C95.088 27.288 95.136 27.2 95.224 27.112C95.312 27.08 95.46 27.056 95.668 27.04C95.876 27.024 96.1 27.032 96.34 27.064C96.58 27.088 96.792 27.144 96.976 27.232C97.112 27.296 97.208 27.392 97.264 27.52C97.32 27.64 97.348 27.78 97.348 27.94C97.348 28.1 97.332 28.264 97.3 28.432C97.26 28.608 97.172 28.82 97.036 29.068C96.908 29.308 96.752 29.564 96.568 29.836C96.448 30.004 96.28 30.188 96.064 30.388C95.856 30.588 95.64 30.768 95.416 30.928C95.2 31.088 95.016 31.196 94.864 31.252C94.544 31.396 94.216 31.488 93.88 31.528C93.544 31.576 93.268 31.524 93.052 31.372ZM98.1317 30.568C98.0997 30.504 98.0597 30.456 98.0117 30.424C97.9637 30.384 97.9397 30.348 97.9397 30.316C97.9397 30.284 97.9357 30.252 97.9277 30.22C97.9277 30.18 97.9117 30.144 97.8797 30.112C97.8397 30.064 97.8437 29.956 97.8917 29.788C97.9397 29.612 98.0197 29.4 98.1317 29.152C98.2437 28.896 98.3757 28.628 98.5277 28.348C98.5917 28.284 98.6557 28.2 98.7197 28.096C98.7837 27.992 98.8317 27.924 98.8637 27.892C98.8637 27.86 98.8757 27.832 98.8997 27.808C98.9237 27.776 98.9517 27.76 98.9837 27.76V27.688C98.9837 27.648 99.0197 27.58 99.0917 27.484C99.1717 27.388 99.2677 27.284 99.3797 27.172C99.4917 27.052 99.6077 26.94 99.7277 26.836C99.8477 26.724 99.9477 26.644 100.028 26.596C100.196 26.484 100.368 26.416 100.544 26.392C100.728 26.368 100.884 26.408 101.012 26.512C101.036 26.536 101.076 26.576 101.132 26.632C101.188 26.688 101.252 26.752 101.324 26.824C101.404 26.888 101.484 26.956 101.564 27.028L102.008 27.424L101.792 28.024C101.688 28.344 101.66 28.624 101.708 28.864C101.764 29.104 101.844 29.312 101.948 29.488C101.988 29.576 102.068 29.66 102.188 29.74C102.316 29.82 102.436 29.868 102.548 29.884C102.612 29.892 102.672 29.916 102.728 29.956C102.784 29.996 102.812 30.06 102.812 30.148C102.812 30.228 102.796 30.292 102.764 30.34C102.732 30.388 102.676 30.42 102.596 30.436C102.332 30.468 102.084 30.404 101.852 30.244C101.628 30.084 101.42 29.82 101.228 29.452C101.196 29.404 101.152 29.316 101.096 29.188C101.048 29.052 101.02 28.964 101.012 28.924C100.98 28.964 100.92 29.04 100.832 29.152C100.744 29.256 100.676 29.332 100.628 29.38C100.06 29.956 99.5677 30.344 99.1517 30.544C98.7437 30.736 98.4037 30.744 98.1317 30.568ZM98.5637 29.896C98.5637 29.952 98.6477 29.952 98.8157 29.896C98.9917 29.832 99.1797 29.72 99.3797 29.56C99.6517 29.328 99.9237 29.072 100.196 28.792C100.476 28.512 100.7 28.252 100.868 28.012L101.132 27.58C101.052 27.396 100.964 27.272 100.868 27.208C100.78 27.136 100.704 27.1 100.64 27.1C100.536 27.1 100.38 27.196 100.172 27.388C99.9717 27.58 99.7557 27.836 99.5237 28.156C99.2917 28.476 99.0717 28.828 98.8637 29.212C98.7837 29.372 98.7117 29.528 98.6477 29.68C98.5917 29.824 98.5637 29.896 98.5637 29.896ZM104.234 30.916C104.146 30.9 104.054 30.856 103.958 30.784C103.87 30.704 103.79 30.616 103.718 30.52C103.654 30.416 103.61 30.324 103.586 30.244C103.586 30.228 103.574 30.208 103.55 30.184C103.534 30.16 103.526 30.148 103.526 30.148C103.494 30.124 103.474 30.02 103.466 29.836C103.466 29.644 103.478 29.432 103.502 29.2C103.526 28.968 103.554 28.784 103.586 28.648C103.626 28.52 103.686 28.348 103.766 28.132C103.846 27.908 103.914 27.708 103.97 27.532L104.294 26.836L103.814 26.704C103.758 26.688 103.71 26.656 103.67 26.608C103.638 26.56 103.622 26.52 103.622 26.488C103.622 26.424 103.658 26.348 103.73 26.26C103.802 26.164 103.854 26.116 103.886 26.116C103.926 26.124 103.998 26.128 104.102 26.128C104.214 26.128 104.322 26.124 104.426 26.116C104.53 26.108 104.594 26.1 104.618 26.092C104.65 26.076 104.682 26.056 104.714 26.032C104.746 26 104.77 25.956 104.786 25.9C104.826 25.812 104.862 25.732 104.894 25.66C104.926 25.58 104.97 25.492 105.026 25.396C105.082 25.292 105.126 25.204 105.158 25.132C105.198 25.06 105.258 24.96 105.338 24.832C105.378 24.776 105.422 24.708 105.47 24.628C105.518 24.548 105.578 24.48 105.65 24.424C105.722 24.36 105.794 24.332 105.866 24.34C105.946 24.34 106.046 24.392 106.166 24.496C106.23 24.576 106.266 24.636 106.274 24.676C106.282 24.716 106.25 24.792 106.178 24.904C106.114 25.04 106.038 25.176 105.95 25.312C105.87 25.448 105.794 25.584 105.722 25.72C105.594 25.896 105.57 25.996 105.65 26.02C105.73 26.044 105.954 26.028 106.322 25.972C106.554 25.932 106.722 25.944 106.826 26.008C106.93 26.064 106.99 26.16 107.006 26.296C107.03 26.488 107.01 26.604 106.946 26.644C106.882 26.684 106.698 26.704 106.394 26.704C106.202 26.736 106.038 26.756 105.902 26.764C105.766 26.764 105.666 26.764 105.602 26.764C105.498 26.772 105.43 26.776 105.398 26.776C105.366 26.776 105.318 26.784 105.254 26.8C105.19 26.816 105.142 26.844 105.11 26.884C105.086 26.916 105.058 26.964 105.026 27.028C104.994 27.06 104.946 27.144 104.882 27.28C104.818 27.416 104.738 27.564 104.642 27.724C104.53 28.06 104.434 28.396 104.354 28.732C104.274 29.06 104.21 29.38 104.162 29.692C104.13 29.892 104.134 30.032 104.174 30.112C104.214 30.184 104.318 30.228 104.486 30.244C104.574 30.252 104.714 30.252 104.906 30.244C105.106 30.228 105.262 30.204 105.374 30.172C105.462 30.132 105.554 30.092 105.65 30.052C105.746 30.004 105.834 29.956 105.914 29.908C105.986 29.868 106.058 29.828 106.13 29.788C106.202 29.74 106.238 29.716 106.238 29.716C106.278 29.652 106.322 29.632 106.37 29.656C106.418 29.68 106.458 29.74 106.49 29.836C106.49 29.932 106.47 30.032 106.43 30.136C106.39 30.24 106.242 30.364 105.986 30.508C105.626 30.732 105.294 30.868 104.99 30.916C104.694 30.956 104.442 30.956 104.234 30.916ZM108.411 31.036C108.059 31.036 107.771 30.904 107.547 30.64C107.323 30.368 107.215 30.032 107.223 29.632C107.239 29.344 107.295 29.036 107.391 28.708C107.495 28.372 107.631 28.052 107.799 27.748C107.967 27.436 108.151 27.164 108.351 26.932C108.551 26.7 108.759 26.536 108.975 26.44C109.055 26.4 109.139 26.368 109.227 26.344C109.323 26.32 109.419 26.308 109.515 26.308C109.603 26.308 109.695 26.324 109.791 26.356C109.887 26.38 109.967 26.408 110.031 26.44C110.167 26.496 110.271 26.564 110.343 26.644C110.415 26.724 110.479 26.848 110.535 27.016C110.559 27.168 110.571 27.276 110.571 27.34C110.571 27.404 110.551 27.5 110.511 27.628C110.415 27.916 110.291 28.164 110.139 28.372C109.987 28.58 109.783 28.756 109.527 28.9C109.463 28.94 109.387 28.972 109.299 28.996C109.219 29.012 109.135 29.02 109.047 29.02C108.887 29.02 108.731 28.992 108.579 28.936C108.435 28.872 108.319 28.78 108.231 28.66L108.147 28.564L108.111 28.66C108.031 28.876 107.967 29.076 107.919 29.26C107.879 29.444 107.859 29.612 107.859 29.764C107.859 29.86 107.867 29.952 107.883 30.04C107.907 30.128 107.939 30.204 107.979 30.268C108.011 30.316 108.063 30.352 108.135 30.376C108.215 30.392 108.299 30.4 108.387 30.4C108.443 30.4 108.499 30.4 108.555 30.4C108.619 30.392 108.679 30.376 108.735 30.352C108.871 30.304 108.979 30.252 109.059 30.196C109.147 30.14 109.235 30.08 109.323 30.016L109.371 29.992H109.359C109.455 29.944 109.539 29.896 109.611 29.848C109.691 29.8 109.731 29.776 109.731 29.776C109.763 29.776 109.795 29.756 109.827 29.716C109.891 29.684 109.971 29.696 110.067 29.752C110.171 29.808 110.223 29.88 110.223 29.968C110.215 30.008 110.179 30.072 110.115 30.16C110.051 30.24 109.979 30.316 109.899 30.388C109.827 30.46 109.767 30.5 109.719 30.508C109.711 30.516 109.683 30.532 109.635 30.556C109.587 30.572 109.555 30.588 109.539 30.604H109.551C109.479 30.7 109.407 30.748 109.335 30.748H109.239C109.207 30.804 109.103 30.868 108.927 30.94C108.751 31.004 108.579 31.036 108.411 31.036ZM108.951 28.396C109.095 28.396 109.219 28.356 109.323 28.276C109.435 28.188 109.531 28.092 109.611 27.988C109.771 27.772 109.863 27.564 109.887 27.364C109.919 27.156 109.895 27.012 109.815 26.932C109.767 26.908 109.723 26.896 109.683 26.896C109.651 26.888 109.583 26.9 109.479 26.932C109.407 26.948 109.307 27.008 109.179 27.112C109.051 27.216 108.923 27.332 108.795 27.46C108.675 27.588 108.583 27.696 108.519 27.784L108.363 28.036C108.427 28.012 108.487 28 108.543 28C108.607 27.992 108.643 27.996 108.651 28.012C108.651 28.084 108.663 28.152 108.687 28.216C108.719 28.272 108.755 28.316 108.795 28.348C108.843 28.38 108.895 28.396 108.951 28.396ZM114.065 30.928C113.953 30.864 113.861 30.78 113.789 30.676C113.717 30.564 113.665 30.42 113.633 30.244C113.609 30.06 113.597 29.832 113.597 29.56C113.597 29.416 113.597 29.284 113.597 29.164C113.597 29.044 113.597 28.984 113.597 28.984C113.597 28.984 113.557 29.036 113.477 29.14C113.397 29.244 113.301 29.384 113.189 29.56C113.013 29.888 112.833 30.16 112.649 30.376C112.465 30.584 112.329 30.704 112.241 30.736C112.201 30.752 112.141 30.756 112.061 30.748C111.981 30.732 111.897 30.712 111.809 30.688C111.729 30.656 111.657 30.62 111.593 30.58C111.529 30.54 111.489 30.496 111.473 30.448C111.457 30.408 111.449 30.32 111.449 30.184C111.449 30.04 111.453 29.884 111.461 29.716C111.477 29.54 111.497 29.38 111.521 29.236C111.545 29.084 111.573 28.976 111.605 28.912C111.605 28.888 111.609 28.864 111.617 28.84C111.633 28.808 111.629 28.776 111.605 28.744C111.605 28.744 111.629 28.656 111.677 28.48C111.733 28.304 111.797 28.096 111.869 27.856C111.949 27.616 112.021 27.392 112.085 27.184C112.157 26.968 112.209 26.824 112.241 26.752C112.241 26.688 112.249 26.62 112.265 26.548C112.289 26.476 112.301 26.424 112.301 26.392C112.301 26.32 112.341 26.244 112.421 26.164C112.509 26.116 112.577 26.108 112.625 26.14C112.681 26.164 112.749 26.208 112.829 26.272C112.909 26.352 112.961 26.416 112.985 26.464C113.017 26.512 113.017 26.58 112.985 26.668C112.961 26.756 112.909 26.9 112.829 27.1C112.749 27.276 112.673 27.464 112.601 27.664C112.529 27.856 112.465 28.036 112.409 28.204C112.361 28.364 112.325 28.488 112.301 28.576C112.301 28.632 112.289 28.688 112.265 28.744C112.249 28.792 112.241 28.832 112.241 28.864C112.217 28.888 112.201 28.916 112.193 28.948C112.193 28.98 112.193 29.012 112.193 29.044C112.193 29.076 112.181 29.132 112.157 29.212C112.133 29.284 112.121 29.364 112.121 29.452C112.089 29.604 112.105 29.692 112.169 29.716C112.241 29.732 112.309 29.724 112.373 29.692C112.397 29.66 112.449 29.604 112.529 29.524C112.617 29.444 112.689 29.36 112.745 29.272C112.777 29.176 112.809 29.112 112.841 29.08C112.881 29.048 112.913 29.02 112.937 28.996C112.961 28.972 112.973 28.928 112.973 28.864C112.973 28.832 113.009 28.768 113.081 28.672C113.161 28.568 113.245 28.452 113.333 28.324C113.501 28.036 113.605 27.852 113.645 27.772C113.709 27.66 113.773 27.564 113.837 27.484C113.909 27.396 113.973 27.288 114.029 27.16C114.061 27.096 114.085 27.052 114.101 27.028C114.125 26.996 114.181 26.98 114.269 26.98C114.357 26.98 114.421 26.988 114.461 27.004C114.501 27.02 114.533 27.072 114.557 27.16C114.621 27.216 114.657 27.276 114.665 27.34C114.673 27.396 114.677 27.452 114.677 27.508C114.645 27.54 114.625 27.58 114.617 27.628C114.617 27.668 114.617 27.688 114.617 27.688C114.617 27.712 114.601 27.784 114.569 27.904C114.545 28.024 114.505 28.14 114.449 28.252C114.385 28.524 114.333 28.816 114.293 29.128C114.253 29.432 114.233 29.696 114.233 29.92C114.241 30.136 114.265 30.26 114.305 30.292C114.353 30.324 114.445 30.248 114.581 30.064C114.725 29.88 114.885 29.656 115.061 29.392C115.101 29.328 115.185 29.224 115.313 29.08C115.441 28.936 115.529 28.808 115.577 28.696C115.577 28.656 115.601 28.592 115.649 28.504C115.697 28.408 115.745 28.308 115.793 28.204C115.841 28.092 115.865 28 115.865 27.928C115.857 27.912 115.897 27.84 115.985 27.712C116.073 27.584 116.157 27.42 116.237 27.22C116.277 27.06 116.349 26.944 116.453 26.872C116.565 26.8 116.665 26.776 116.753 26.8C116.841 26.816 116.873 26.892 116.849 27.028C116.809 27.3 116.717 27.616 116.573 27.976C116.437 28.328 116.277 28.684 116.093 29.044C115.917 29.396 115.741 29.708 115.565 29.98C115.501 30.036 115.445 30.104 115.397 30.184C115.349 30.256 115.325 30.308 115.325 30.34C115.325 30.356 115.289 30.396 115.217 30.46C115.153 30.516 115.073 30.584 114.977 30.664C114.881 30.736 114.781 30.804 114.677 30.868C114.573 30.948 114.477 30.992 114.389 31C114.301 31.008 114.193 30.984 114.065 30.928ZM118.104 30.604C118.008 30.62 117.904 30.604 117.792 30.556C117.68 30.508 117.58 30.44 117.492 30.352C117.412 30.264 117.36 30.172 117.336 30.076C117.304 29.908 117.324 29.7 117.396 29.452C117.476 29.196 117.588 28.928 117.732 28.648C117.884 28.36 118.052 28.084 118.236 27.82C118.428 27.556 118.624 27.328 118.824 27.136C119.032 26.936 119.224 26.8 119.4 26.728C119.488 26.672 119.556 26.636 119.604 26.62C119.66 26.596 119.716 26.592 119.772 26.608C119.836 26.624 119.928 26.664 120.048 26.728C120.16 26.76 120.244 26.796 120.3 26.836C120.356 26.876 120.428 26.956 120.516 27.076C120.58 27.196 120.628 27.316 120.66 27.436C120.692 27.556 120.72 27.692 120.744 27.844C120.808 28.044 120.832 28.176 120.816 28.24C120.8 28.296 120.776 28.34 120.744 28.372C120.68 28.452 120.664 28.492 120.696 28.492C120.696 28.492 120.692 28.508 120.684 28.54C120.684 28.564 120.668 28.604 120.636 28.66C120.58 28.836 120.536 29.02 120.504 29.212C120.48 29.396 120.484 29.548 120.516 29.668C120.58 29.844 120.696 29.948 120.864 29.98C121.032 30.012 121.204 29.94 121.38 29.764C121.468 29.7 121.552 29.644 121.632 29.596C121.712 29.54 121.752 29.544 121.752 29.608C121.752 29.608 121.764 29.62 121.788 29.644C121.812 29.66 121.84 29.668 121.872 29.668C121.912 29.668 121.936 29.684 121.944 29.716C121.96 29.748 121.96 29.792 121.944 29.848C121.936 29.896 121.912 29.952 121.872 30.016C121.752 30.136 121.692 30.216 121.692 30.256C121.692 30.256 121.676 30.272 121.644 30.304C121.62 30.328 121.576 30.368 121.512 30.424C121.368 30.512 121.184 30.556 120.96 30.556C120.744 30.556 120.576 30.512 120.456 30.424C120.336 30.336 120.224 30.216 120.12 30.064C120.024 29.912 119.96 29.78 119.928 29.668L119.868 29.548L119.52 29.776C119.432 29.864 119.336 29.948 119.232 30.028C119.136 30.108 119.072 30.164 119.04 30.196C119.016 30.228 118.988 30.256 118.956 30.28C118.932 30.304 118.904 30.316 118.872 30.316C118.84 30.316 118.812 30.316 118.788 30.316C118.764 30.316 118.752 30.316 118.752 30.316C118.752 30.348 118.712 30.388 118.632 30.436C118.56 30.484 118.472 30.524 118.368 30.556C118.272 30.588 118.184 30.604 118.104 30.604ZM117.984 29.956C118.032 29.956 118.116 29.92 118.236 29.848C118.364 29.768 118.504 29.676 118.656 29.572C118.816 29.468 118.956 29.364 119.076 29.26C119.204 29.156 119.292 29.076 119.34 29.02C119.372 28.988 119.424 28.936 119.496 28.864C119.568 28.784 119.632 28.716 119.688 28.66C119.872 28.452 120 28.224 120.072 27.976C120.144 27.72 120.136 27.52 120.048 27.376C120.016 27.288 119.976 27.24 119.928 27.232C119.88 27.224 119.78 27.252 119.628 27.316C119.532 27.372 119.412 27.48 119.268 27.64C119.132 27.792 118.984 27.972 118.824 28.18C118.672 28.38 118.528 28.588 118.392 28.804C118.256 29.02 118.144 29.22 118.056 29.404C117.968 29.588 117.924 29.732 117.924 29.836C117.924 29.868 117.932 29.896 117.948 29.92C117.972 29.944 117.984 29.956 117.984 29.956ZM123.122 33.76C123.114 33.776 123.078 33.76 123.014 33.712C122.958 33.664 122.902 33.604 122.846 33.532C122.79 33.468 122.766 33.412 122.774 33.364C122.742 33.252 122.746 33.112 122.786 32.944C122.834 32.784 122.934 32.544 123.086 32.224C123.166 32.096 123.238 31.944 123.302 31.768C123.374 31.592 123.454 31.416 123.542 31.24C123.582 31.168 123.67 31.012 123.806 30.772C123.942 30.532 124.086 30.26 124.238 29.956C124.398 29.652 124.53 29.364 124.634 29.092C124.426 29.308 124.234 29.528 124.058 29.752C123.882 29.968 123.718 30.144 123.566 30.28C123.422 30.416 123.286 30.48 123.158 30.472C123.054 30.448 122.942 30.412 122.822 30.364C122.71 30.308 122.634 30.212 122.594 30.076C122.562 29.9 122.55 29.676 122.558 29.404C122.574 29.132 122.626 28.72 122.714 28.168C122.778 27.896 122.814 27.688 122.822 27.544C122.838 27.392 122.834 27.28 122.81 27.208C122.786 27.136 122.742 27.072 122.678 27.016C122.574 26.92 122.518 26.836 122.51 26.764C122.51 26.684 122.566 26.616 122.678 26.56C122.846 26.52 122.966 26.508 123.038 26.524C123.11 26.532 123.198 26.596 123.302 26.716C123.366 26.82 123.422 26.92 123.47 27.016C123.526 27.104 123.554 27.26 123.554 27.484C123.554 27.58 123.538 27.708 123.506 27.868C123.482 28.028 123.458 28.18 123.434 28.324C123.418 28.46 123.406 28.556 123.398 28.612C123.318 28.908 123.266 29.164 123.242 29.38C123.226 29.596 123.238 29.704 123.278 29.704C123.438 29.576 123.59 29.432 123.734 29.272C123.886 29.104 124.042 28.916 124.202 28.708C124.37 28.492 124.554 28.248 124.754 27.976C124.826 27.84 124.898 27.708 124.97 27.58C125.042 27.452 125.102 27.32 125.15 27.184C125.198 27.08 125.246 26.996 125.294 26.932C125.342 26.868 125.382 26.832 125.414 26.824C125.454 26.808 125.502 26.812 125.558 26.836C125.622 26.86 125.678 26.888 125.726 26.92C125.782 26.944 125.81 26.964 125.81 26.98C125.818 26.988 125.838 26.996 125.87 27.004C125.902 27.012 125.934 27.02 125.966 27.028C126.006 27.028 126.026 27.04 126.026 27.064C126.026 27.08 126.006 27.132 125.966 27.22C125.934 27.308 125.894 27.408 125.846 27.52C125.806 27.624 125.77 27.72 125.738 27.808C125.706 27.888 125.694 27.936 125.702 27.952C125.718 27.968 125.706 28.028 125.666 28.132C125.626 28.228 125.578 28.336 125.522 28.456C125.474 28.576 125.43 28.684 125.39 28.78C125.31 29.044 125.218 29.308 125.114 29.572C125.01 29.828 124.886 30.084 124.742 30.34C124.694 30.436 124.622 30.584 124.526 30.784C124.438 30.984 124.35 31.18 124.262 31.372C124.182 31.572 124.118 31.724 124.07 31.828C124.038 31.892 123.99 31.992 123.926 32.128C123.87 32.272 123.806 32.428 123.734 32.596C123.67 32.764 123.606 32.92 123.542 33.064C123.478 33.216 123.43 33.332 123.398 33.412C123.382 33.564 123.346 33.676 123.29 33.748C123.258 33.748 123.222 33.748 123.182 33.748C123.142 33.756 123.122 33.76 123.122 33.76Z" fill="white"/>
<defs>
<filter id="filter0_d_6_5" x="0.120132" y="9.64531" width="102.862" height="73.8444" filterUnits="userSpaceOnUse" color-interpolation-filters="sRGB">
<feFlood flood-opacity="0" result="BackgroundImageFix"/>
<feColorMatrix in="SourceAlpha" type="matrix" values="0 0 0 0 0 0 0 0 0 0 0 0 0 0 0 0 0 0 127 0" result="hardAlpha"/>
<feOffset dy="4"/>
<feGaussianBlur stdDeviation="2"/>
<feComposite in2="hardAlpha" operator="out"/>
<feColorMatrix type="matrix" values="0 0 0 0 0 0 0 0 0 0 0 0 0 0 0 0 0 0 0.25 0"/>
<feBlend mode="normal" in2="BackgroundImageFix" result="effect1_dropShadow_6_5"/>
<feBlend mode="normal" in="SourceGraphic" in2="effect1_dropShadow_6_5" result="shape"/>
</filter>
<filter id="filter1_d_6_5" x="86" y="0" width="47" height="83" filterUnits="userSpaceOnUse" color-interpolation-filters="sRGB">
<feFlood flood-opacity="0" result="BackgroundImageFix"/>
<feColorMatrix in="SourceAlpha" type="matrix" values="0 0 0 0 0 0 0 0 0 0 0 0 0 0 0 0 0 0 127 0" result="hardAlpha"/>
<feOffset dy="4"/>
<feGaussianBlur stdDeviation="2"/>
<feComposite in2="hardAlpha" operator="out"/>
<feColorMatrix type="matrix" values="0 0 0 0 0 0 0 0 0 0 0 0 0 0 0 0 0 0 0.25 0"/>
<feBlend mode="normal" in2="BackgroundImageFix" result="effect1_dropShadow_6_5"/>
<feBlend mode="normal" in="SourceGraphic" in2="effect1_dropShadow_6_5" result="shape"/>
</filter>
</defs>
</svg>
