<svg width="128" height="128" viewBox="0 0 128 128" fill="none" xmlns="http://www.w3.org/2000/svg">
<rect width="128" height="128" fill="black"/>
<rect x="8.5" y="73.5" width="23" height="48.9932" fill="white" stroke="#979797"/>
<path d="M26.993 117.735L8.5 122.36V73.5732L26.993 76.1091V117.735Z" fill="#BD68DE" stroke="#979797"/>
<ellipse cx="25.4084" cy="103.739" rx="0.732394" ry="1.02201" fill="black"/>
<path d="M25.7128 14.478C25.7279 13.9367 26.171 13.5058 26.7125 13.5058H37.3803C37.9647 13.5058 38.4246 14.0048 38.377 14.5873L36.0547 42.971C36.0106 43.5092 35.5473 43.9152 35.0081 43.8882L25.8867 43.4322C25.3438 43.405 24.922 42.9491 24.9371 42.4056L25.7128 14.478Z" fill="#45B85B"/>
<path d="M15.359 3.84898C15.4475 3.36123 15.88 3.01198 16.3755 3.02815L48.5906 4.07961C49.1299 4.09722 49.558 4.5395 49.558 5.07908V10.8737C49.558 11.4321 49.1007 11.8824 48.5424 11.8736L15.1789 11.3523C14.5615 11.3427 14.1003 10.7813 14.2106 10.1738L15.359 3.84898Z" fill="#24BAE9"/>
<path d="M39.1431 55.8784C39.0765 55.2735 39.5611 54.7498 40.1693 54.7694L53.2611 55.1917C53.8006 55.2091 54.2289 55.6515 54.2289 56.1912V83.3571C54.2289 83.9335 53.743 84.3905 53.1678 84.3553L43.0471 83.7356C42.5613 83.7059 42.1675 83.3308 42.1142 82.847L39.1431 55.8784Z" fill="#24BAE9"/>
<path d="M44.2114 45.0547C44.5601 44.4927 45.3486 44.418 45.7967 44.9045L51.9476 51.5826C52.5378 52.2235 52.0833 53.2601 51.212 53.2601H40.9174C40.1334 53.2601 39.6543 52.399 40.0676 51.7329L44.2114 45.0547Z" fill="#7F3F98"/>
<path d="M70.7733 65.0143C71.1264 64.6149 71.7308 64.5627 72.1472 64.8958L74.316 66.6309C74.7423 66.9719 74.8163 67.5917 74.4824 68.0235L61.5484 84.7484C61.1798 85.2251 60.4764 85.2699 60.0503 84.8438L57.1021 81.8956C56.7284 81.5219 56.71 80.922 57.06 80.5261L70.7733 65.0143Z" fill="#FBE34B"/>
<path d="M73.7679 72.3479C73.5329 71.9462 73.6061 71.4355 73.9445 71.116L76.7545 68.462C77.2564 67.988 78.0762 68.1531 78.3556 68.7843L84.061 81.6744C84.2605 82.1251 84.1019 82.6539 83.6874 82.9204L81.8499 84.1016C81.3715 84.4091 80.7332 84.2562 80.446 83.7653L73.7679 72.3479Z" fill="#EF402F"/>
<path d="M86.8342 57.1766C86.8492 56.6353 87.2923 56.2044 87.8338 56.2044H97.0624C97.6468 56.2044 98.1067 56.7034 98.059 57.2859L96.0183 82.2279C95.9743 82.766 95.511 83.172 94.9717 83.1451L87.102 82.7516C86.559 82.7244 86.1372 82.2685 86.1523 81.7251L86.8342 57.1766Z" fill="#45B85B"/>
<path d="M87.0384 47.6556C87.0757 47.0959 87.566 46.6764 88.1248 46.726L97.236 47.5359C97.7519 47.5818 98.1474 48.014 98.1474 48.532V53.4434C98.1474 54.0124 97.6734 54.4667 97.1049 54.4425L87.6391 54.0397C87.0779 54.0159 86.6465 53.5346 86.6839 52.9741L87.0384 47.6556Z" fill="#24BAE9"/>
<path d="M105.252 102.191C105.788 102.578 105.808 103.37 105.291 103.783L100.527 107.593C99.8462 108.137 98.8438 107.612 98.9045 106.743L99.3868 99.8417C99.4414 99.0596 100.334 98.6417 100.97 99.1005L105.252 102.191Z" fill="#7F3F98"/>
<path d="M108.616 84.9289C108.905 84.5114 109.461 84.3766 109.909 84.6153L111.176 85.2903C111.604 85.5186 111.807 86.0219 111.656 86.4835L107.055 100.563C106.843 101.213 106.054 101.463 105.506 101.053L100.974 97.6694C100.543 97.3474 100.444 96.7418 100.75 96.2991L108.616 84.9289Z" fill="#FBE34B"/>
<path d="M100.338 110.652C100.109 110.235 100.205 109.714 100.569 109.407L105.442 105.283C105.996 104.814 106.849 105.073 107.049 105.771L111.57 121.53C111.696 121.968 111.509 122.437 111.115 122.668L108.847 124C108.361 124.285 107.736 124.113 107.464 123.619L100.338 110.652Z" fill="#EF402F"/>
<path d="M112.128 87.2035C112.299 86.6689 112.876 86.379 113.406 86.5614L117.956 88.1248C118.446 88.2931 118.726 88.8075 118.602 89.3102L118.066 91.4818C117.929 92.0343 117.36 92.3617 116.814 92.2019L112.054 90.8088C111.515 90.6511 111.212 90.0806 111.382 89.5455L112.128 87.2035Z" fill="#24BAE9"/>
<path d="M111.311 118.615C111.147 118.079 111.456 117.512 111.996 117.359L116.625 116.052C117.124 115.911 117.647 116.174 117.831 116.658L118.628 118.748C118.831 119.28 118.55 119.873 118.01 120.053L113.305 121.62C112.772 121.798 112.197 121.502 112.033 120.965L111.311 118.615Z" fill="#24BAE9"/>
</svg>
