<svg width="32" height="32" viewBox="0 0 32 32" fill="none" xmlns="http://www.w3.org/2000/svg">
<rect width="32" height="32" fill="black"/>
<path d="M3.55402 8.28195C3.56905 7.74069 4.01216 7.30972 4.55363 7.30972H5.29362C5.87806 7.30972 6.33795 7.80877 6.29029 8.39126L5.91039 13.0344C5.86636 13.5726 5.40307 13.9786 4.86379 13.9516L4.3754 13.9272C3.83243 13.9001 3.41062 13.4441 3.42572 12.9007L3.55402 8.28195Z" fill="#45B85B"/>
<path d="M1.19209 5.77425C1.27285 5.32943 1.6673 5.01092 2.11914 5.02567L7.98353 5.21708C8.44846 5.23225 8.8175 5.61354 8.8175 6.07871V6.07871C8.8175 6.5601 8.42327 6.94822 7.94194 6.94069L2.07515 6.84903C1.5121 6.84023 1.09149 6.3283 1.19209 5.77425V5.77425Z" fill="#24BAE9"/>
<path d="M10.1263 8.51653C10.0596 7.91161 10.5442 7.38793 11.1525 7.40755L12.3723 7.4469C12.9118 7.4643 13.3401 7.90664 13.3401 8.44638V12.8258C13.3401 13.4021 12.8542 13.8591 12.279 13.8239L11.541 13.7787C11.0552 13.749 10.6614 13.3739 10.6081 12.8901L10.1263 8.51653Z" fill="#24BAE9"/>
<path d="M10.756 5.86526C11.0258 5.43036 11.636 5.37254 11.9828 5.74901V5.74901C12.4395 6.24492 12.0878 7.04714 11.4136 7.04714V7.04714C10.8069 7.04714 10.4361 6.38078 10.756 5.86526V5.86526Z" fill="#7F3F98"/>
<path d="M16.774 9.85269C16.9628 9.63913 17.286 9.61125 17.5086 9.78932V9.78932C17.7364 9.97163 17.776 10.303 17.5975 10.5339L15.2536 13.5647C15.0101 13.8796 14.5455 13.9092 14.2641 13.6277V13.6277C14.0173 13.3809 14.0051 12.9847 14.2363 12.7232L16.774 9.85269Z" fill="#FBE34B"/>
<path d="M17.7843 11.5017C17.6425 11.2592 17.6867 10.951 17.8909 10.7581V10.7581C18.1939 10.4719 18.6887 10.5715 18.8574 10.9526L19.8027 13.0883C19.8969 13.301 19.822 13.5507 19.6263 13.6765V13.6765C19.4004 13.8217 19.0991 13.7495 18.9635 13.5177L17.7843 11.5017Z" fill="#EF402F"/>
<path d="M20.478 8.66583C20.4931 8.12457 20.9362 7.6936 21.4776 7.6936H21.898C22.4824 7.6936 22.9423 8.19265 22.8947 8.77514L22.5773 12.6539C22.5333 13.1921 22.07 13.5981 21.5307 13.5711L21.3203 13.5606C20.7773 13.5335 20.3555 13.0775 20.3706 12.5341L20.478 8.66583Z" fill="#45B85B"/>
<path d="M20.5051 6.39988C20.5346 5.95694 20.9226 5.62492 21.3648 5.66423L22.2812 5.74568C22.6785 5.781 22.9831 6.11391 22.9831 6.51284V6.51284C22.9831 6.95105 22.618 7.30096 22.1802 7.28233L21.2611 7.24322C20.817 7.22432 20.4755 6.84343 20.5051 6.39988V6.39988Z" fill="#24BAE9"/>
<path d="M25.4227 8.60799C25.8113 8.88841 25.8254 9.46207 25.4512 9.76135V9.76135C24.9582 10.1556 24.2319 9.7747 24.2759 9.14499V9.14499C24.3155 8.57836 24.9621 8.27558 25.4227 8.60799V8.60799Z" fill="#7F3F98"/>
<path d="M26.7001 4.48376C26.8421 4.27853 27.1154 4.21224 27.3356 4.32959V4.32959C27.5463 4.44185 27.6459 4.68926 27.5718 4.9162L26.6725 7.66784C26.4784 8.26184 25.7585 8.4899 25.2578 8.11602V8.11602C24.8638 7.82188 24.7734 7.26871 25.0531 6.86441L26.7001 4.48376Z" fill="#FBE34B"/>
<path d="M24.8744 11.7524C24.6466 11.3378 24.7424 10.8202 25.1035 10.5146V10.5146C25.6542 10.0486 26.5023 10.3059 26.7013 10.9994L27.523 13.8635C27.6061 14.1532 27.4825 14.4624 27.2226 14.615V14.615C26.9018 14.8035 26.4886 14.6898 26.3094 14.3637L24.8744 11.7524Z" fill="#EF402F"/>
<path d="M27.6566 5.24621C27.7573 4.93003 28.0985 4.7586 28.4123 4.86644L29.0572 5.08804C29.3391 5.18492 29.5004 5.48099 29.429 5.7704V5.7704C29.3504 6.08838 29.0228 6.27686 28.7084 6.18486L28.054 5.99332C27.7352 5.90004 27.5558 5.56265 27.6566 5.24621V5.24621Z" fill="#24BAE9"/>
<path d="M27.6341 13.6878C27.5367 13.3706 27.7194 13.0353 28.0387 12.9451L28.6949 12.7598C28.9818 12.6788 29.2831 12.8301 29.3893 13.1087V13.1087C29.5059 13.4147 29.3441 13.7563 29.0333 13.8598L28.3864 14.0754C28.0713 14.1803 27.7316 14.0053 27.6341 13.6878V13.6878Z" fill="#24BAE9"/>
<rect x="13.05" y="17.05" width="5.9" height="12.3983" fill="white" stroke="#979797" stroke-width="0.1"/>
<path d="M17.8232 28.2424L13.05 29.436V17.0573L17.8232 17.7119V28.2424Z" fill="#BD68DE" stroke="#979797" stroke-width="0.1"/>
<ellipse cx="17.3521" cy="24.6847" rx="0.183099" ry="0.255503" fill="black"/>
</svg>
