<svg width="16" height="16" viewBox="0 0 16 16" fill="none" xmlns="http://www.w3.org/2000/svg">
<rect width="16" height="16" fill="black"/>
<rect x="7.05" y="9.05" width="2.71081" height="5.75505" fill="white" stroke="#979797" stroke-width="0.1"/>
<path d="M9.23296 14.246L7.05 14.7918V9.05732L9.23296 9.35666V14.246Z" fill="#BD68DE" stroke="#979797" stroke-width="0.1"/>
<ellipse cx="9.03884" cy="12.6001" rx="0.0857759" ry="0.119695" fill="black"/>
<path d="M1.35614 3.98903C1.3666 3.59619 1.68807 3.28318 2.08104 3.28318V3.28318C2.5039 3.28318 2.83706 3.6435 2.80399 4.06506L2.62446 6.35335C2.59623 6.71319 2.28643 6.98502 1.92597 6.96622V6.96622C1.56532 6.94742 1.28541 6.64455 1.29502 6.28354L1.35614 3.98903Z" fill="#45B85B"/>
<path d="M0.101602 2.4343C0.144948 2.18532 0.365208 2.0064 0.617786 2.015L3.70164 2.11997C3.95975 2.12875 4.16445 2.34054 4.16445 2.59879V2.59879C4.16445 2.86645 3.94516 3.08219 3.67754 3.07783L0.592305 3.02756C0.281245 3.02249 0.0482437 2.74079 0.101602 2.4343V2.4343Z" fill="#24BAE9"/>
<path d="M5.1061 4.22744C5.0501 3.71914 5.4573 3.2791 5.96841 3.29559V3.29559C6.4217 3.31021 6.78159 3.6819 6.78159 4.13542V5.95422C6.78159 6.38092 6.42186 6.7193 5.99596 6.69322V6.69322C5.63631 6.6712 5.34473 6.39346 5.30527 6.0353L5.1061 4.22744Z" fill="#24BAE9"/>
<path d="M5.40325 2.46153C5.54719 2.22955 5.87265 2.19871 6.05761 2.39952V2.39952C6.30125 2.66404 6.11362 3.09194 5.75399 3.09194V3.09194C5.43039 3.09194 5.23263 2.73651 5.40325 2.46153V2.46153Z" fill="#7F3F98"/>
<path d="M8.61328 4.58842C8.71399 4.47451 8.88635 4.45964 9.00508 4.55462V4.55462C9.12663 4.65186 9.14775 4.82862 9.05252 4.95176L7.80229 6.56843C7.67242 6.73637 7.42461 6.75214 7.27449 6.60202V6.60202C7.14285 6.47038 7.13636 6.25904 7.25966 6.11957L8.61328 4.58842Z" fill="#FBE34B"/>
<path d="M9.15214 5.46801C9.07649 5.33867 9.10005 5.17423 9.20899 5.07135V5.07135C9.37059 4.91873 9.63456 4.97186 9.72452 5.17512L10.2287 6.31428C10.279 6.42776 10.239 6.56092 10.1346 6.62803V6.62803C10.0142 6.70548 9.85342 6.66698 9.78111 6.54334L9.15214 5.46801Z" fill="#EF402F"/>
<path d="M10.586 4.06128C10.5957 3.7136 10.8803 3.43676 11.2281 3.43676V3.43676C11.6036 3.43676 11.899 3.75733 11.8684 4.1315L11.7133 6.02686C11.6873 6.34498 11.4134 6.58499 11.0946 6.56905V6.56905C10.7737 6.553 10.5243 6.28348 10.5332 5.96224L10.586 4.06128Z" fill="#45B85B"/>
<path d="M10.6034 2.7467C10.6191 2.51043 10.8261 2.33333 11.062 2.3543L11.5507 2.39775C11.7627 2.41659 11.9252 2.59416 11.9252 2.80695V2.80695C11.9252 3.04069 11.7304 3.22733 11.4969 3.21739L11.0066 3.19653C10.7698 3.18645 10.5876 2.98328 10.6034 2.7467V2.7467Z" fill="#24BAE9"/>
<path d="M13.6201 4.0084C13.7894 4.13062 13.7956 4.38065 13.6325 4.5111V4.5111C13.4176 4.68293 13.1011 4.51691 13.1203 4.24246V4.24246C13.1375 3.99549 13.4193 3.86352 13.6201 4.0084V4.0084Z" fill="#7F3F98"/>
<path d="M14.1769 2.21085C14.2387 2.1214 14.3578 2.0925 14.4538 2.14365V2.14365C14.5457 2.19258 14.5891 2.30042 14.5568 2.39933L14.1648 3.59864C14.0802 3.85754 13.7665 3.95693 13.5482 3.79398V3.79398C13.3765 3.66578 13.3371 3.42468 13.459 3.24846L14.1769 2.21085Z" fill="#FBE34B"/>
<path d="M13.3811 5.37889C13.2818 5.19821 13.3236 4.97259 13.481 4.83942V4.83942C13.721 4.63631 14.0906 4.74847 14.1774 5.05071L14.5355 6.29905C14.5717 6.42531 14.5179 6.56007 14.4046 6.6266V6.6266C14.2647 6.70874 14.0847 6.65918 14.0066 6.51704L13.3811 5.37889Z" fill="#EF402F"/>
<path d="M14.5937 2.54316C14.6376 2.40536 14.7863 2.33064 14.9231 2.37764L15.2042 2.47423C15.327 2.51645 15.3973 2.6455 15.3662 2.77163V2.77163C15.332 2.91023 15.1892 2.99238 15.0522 2.95228L14.7669 2.8688C14.628 2.82814 14.5498 2.68108 14.5937 2.54316V2.54316Z" fill="#24BAE9"/>
<path d="M14.5839 6.22246C14.5415 6.0842 14.6211 5.93808 14.7603 5.89876L15.0463 5.81797C15.1713 5.78266 15.3026 5.84864 15.3489 5.97004V5.97004C15.3998 6.10344 15.3292 6.25232 15.1938 6.29744L14.9118 6.39137C14.7745 6.43712 14.6264 6.36084 14.5839 6.22246V6.22246Z" fill="#24BAE9"/>
</svg>
